<svg viewBox="0 -9 512.002 512" xmlns="http://www.w3.org/2000/svg"><path d="m363.5 234.734375c-.660156 0-1.3125-.070313-1.960938-.199219-.640624-.132812-1.269531-.320312-1.867187-.570312-.601563-.25-1.183594-.5625-1.730469-.921875-.542968-.359375-1.050781-.777344-1.519531-1.238281-.460937-.460938-.882813-.96875-1.242187-1.519532-.359376-.542968-.667969-1.121094-.917969-1.730468-.25-.601563-.441407-1.230469-.570313-1.871094-.132812-.640625-.199218-1.300782-.199218-1.949219s.066406-1.308594.199218-1.960937c.128906-.628907.320313-1.257813.570313-1.871094.25-.597656.558593-1.179688.917969-1.71875.359374-.550782.78125-1.058594 1.242187-1.519532.46875-.460937.976563-.878906 1.519531-1.25.550782-.359374 1.128906-.660156 1.730469-.910156.597656-.25 1.226563-.449218 1.867187-.578125 1.289063-.261719 2.621094-.261719 3.910157 0 .640625.128907 1.269531.328125 1.871093.578125.601563.25 1.179688.550782 1.730469.910156.539063.371094 1.058594.789063 1.519531 1.25.460938.460938.878907.96875 1.238282 1.519532.359375.539062.671875 1.121094.921875 1.71875.25.613281.4375 1.242187.570312 1.871094.128907.652343.199219 1.3125.199219 1.960937s-.070312 1.308594-.199219 1.949219c-.132812.640625-.320312 1.269531-.570312 1.871094-.25.609374-.5625 1.1875-.921875 1.730468-.359375.550782-.777344 1.058594-1.238282 1.519532-.460937.460937-.980468.878906-1.519531 1.238281-.550781.359375-1.132812.671875-1.730469.921875-.601562.25-1.230468.4375-1.871093.570312-.648438.128906-1.300781.199219-1.949219.199219zm0 0"/><path d="m502 120.183594c-25.742188 0-46.683594 20.964844-46.683594 46.734375v13.886719h-22.5c1.46875-3.660157 2.28125-7.65625 2.28125-11.832032v-2.753906c0-17.554688-14.28125-31.832031-31.835937-31.832031h-159.328125v-102.550781c0-17.554688-14.28125-31.835938-31.832032-31.835938h-2.691406c-14.882812 0-27.414062 10.269531-30.878906 24.09375h-61.886719c-64.320312 0-116.644531 52.328125-116.644531 116.644531v80.484375c0 51.234375 41.628906 92.917969 92.800781 92.917969h26.347657c12.695312 17.011719 28.621093 30.234375 46.136718 38.726563-7.011718 2.925781-13.765625 6.535156-20.175781 10.800781-10.347656-6.144531-22.421875-9.671875-35.300781-9.671875-38.292969 0-69.441406 31.1875-69.441406 69.523437 0 38.339844 31.148437 69.527344 69.441406 69.527344 38.289062 0 69.441406-31.1875 69.441406-69.527344 0-17.871093-6.769531-34.1875-17.875-46.515625 14.804688-8.546875 31.890625-13.289062 49.867188-13.289062 17.980468 0 35.066406 4.742187 49.871093 13.289062-11.105469 12.328125-17.875 28.644532-17.875 46.515625 0 38.339844 31.152344 69.527344 69.441407 69.527344 38.289062 0 69.441406-31.1875 69.441406-69.527344 0-38.335937-31.152344-69.523437-69.441406-69.523437-12.878907 0-24.953126 3.527344-35.300782 9.671875-6.410156-4.265625-13.164062-7.875-20.175781-10.800781 17.515625-8.492188 33.441406-21.714844 46.136719-38.726563h26.347656c51.171875 0 92.800781-41.683594 92.800781-92.917969v-20.417968h42.832031c5.519532 0 10-4.476563 10-10v-23.886719c0-14.742188 11.96875-26.734375 26.683594-26.734375 5.519532 0 10-4.476563 10-10 0-5.523438-4.480468-10-10.003906-10zm-342.75 303.339844c0 27.308593-22.179688 49.523437-49.441406 49.523437-27.261719 0-49.445313-22.214844-49.445313-49.523437 0-27.308594 22.183594-49.527344 49.445313-49.527344 6.414062 0 12.546875 1.230468 18.175781 3.46875-12.011719 11.632812-21.464844 25.65625-27.765625 41.335937-2.0625 5.125.421875 10.945313 5.546875 13.007813 5.125 2.058594 10.949219-.425782 13.007813-5.546875 5.917968-14.71875 14.988281-27.417969 26.261718-37.457031 8.785156 8.941406 14.214844 21.207031 14.214844 34.71875zm202.871094 0c0 27.308593-22.179688 49.523437-49.441406 49.523437-27.261719 0-49.441407-22.214844-49.441407-49.523437 0-13.511719 5.429688-25.773438 14.214844-34.71875 11.269531 10.035156 20.34375 22.738281 26.257813 37.457031 1.570312 3.898437 5.320312 6.269531 9.28125 6.269531 1.242187 0 2.503906-.230469 3.726562-.722656 5.125-2.0625 7.609375-7.882813 5.550781-13.007813-6.300781-15.679687-15.753906-29.703125-27.765625-41.335937 5.628906-2.238282 11.761719-3.46875 18.175782-3.46875 27.261718 0 49.441406 22.214844 49.441406 49.527344zm41.144531-269.136719c6.523437 0 11.832031 5.308593 11.832031 11.832031v2.75c0 6.527344-5.308594 11.835938-11.832031 11.835938h-159.332031v-26.421876h159.332031zm-205.6875-122.550781c0-6.527344 5.308594-11.835938 11.832031-11.835938h2.691406c6.523438 0 11.832032 5.308594 11.832032 11.835938v148.96875h-26.355469zm-177.578125 108.902343c0-53.289062 43.355469-96.644531 96.644531-96.644531h60.933594v136.710938h-157.578125zm191.242188 202.976563c-23.796876 0-47.363282-10.792969-65.820313-29.574219h131.644531c-18.460937 18.78125-42.027344 29.574219-65.824218 29.574219zm191.242187-122.492188c0 40.207032-32.65625 72.917969-72.796875 72.917969h-236.886719c-35.535156 0-65.207031-25.632813-71.546875-59.410156h304c5.519532 0 10-4.476563 10-10 0-5.519531-4.480468-10-10-10h-305.253906v-13.925781h382.484375zm0 0"/></svg>